# xmcd
#
# Track frame offsets: 
#        150
#        26958
#        44977
#        73429
#        94982
#        117741
#        139361
#
# Disc length: 2206 seconds
#
# Revision: 0
# Processed by: cddbd v1.5.2PL0 Copyright (c) Steve Scherf et al.
# Submitted via: ExactAudioCopy v0.95a4
#
DISCID=7d089c07
DTITLE=Dumpstaphunk - The Rough Guide to the Music of New Orleans (Dis
DTITLE=c 2 of 2 - Listen Hear Extended Version)
DYEAR=2012
DGENRE=2012
TTITLE0=Shake It Off
TTITLE1=Meanwhile...
TTITLE2=Stinky
TTITLE3=Turn This Thing Around
TTITLE4=Deeper
TTITLE5=Oughta Know Better
TTITLE6=Livin Ina World Gone Mad
EXTD=
EXTT0=
EXTT1=
EXTT2=
EXTT3=
EXTT4=
EXTT5=
EXTT6=
PLAYORDER=
